# xmcd CD database file
#
# Track frame offsets:
#	150
#	15060
#	28725
#
# Disc length: 790 seconds
#
# Revision: 0
# Processed by: cddbd v1.5.1PL0 Copyright (c) Steve Scherf et al.
# Submitted via: CDex 1.51
#
DISCID=12031403
DTITLE=Mr Joshua - In Praise Of The Sum
DYEAR=1900
DGENRE=Trance
TTITLE0=In Praise Of The Sum (Radio Edit)
TTITLE1=In Praise Of The Sum (Mr Joshua Original Vocal Mix Edit)
TTITLE2=In Praise Of The Sum (Mr Joshua Original Vocal Mix)
EXTD=
EXTT0=
EXTT1=
EXTT2=
PLAYORDER=
